HIERARCHY
ROOT Hips
{
  OFFSET -33.9132 29.2015 117.021
  CHANNELS 6 Xposition Yposition Zposition Zrotation Xrotation Yrotation
  JOINT LeftUpLeg
  {
    OFFSET 8.64259 1.95398 -2.38835
    CHANNELS 3 Zrotation Xrotation Yrotation
    JOINT LeftLeg
    {
      OFFSET 43.7702 0 0
      CHANNELS 3 Zrotation Xrotation Yrotation
      JOINT LeftFoot
      {
        OFFSET 40.6238 0 0
        CHANNELS 3 Zrotation Xrotation Yrotation
        JOINT LeftToeBase
        {
          OFFSET 12.7242 0 0
          CHANNELS 3 Zrotation Xrotation Yrotation
          End Site
          {
            OFFSET 0 0 0
          }
        }
      }
    }
  }
  JOINT RightUpLeg
  {
    OFFSET -8.2249 1.95398 -2.59336
    CHANNELS 3 Zrotation Xrotation Yrotation
    JOINT RightLeg
    {
      OFFSET 43.5653 0 0
      CHANNELS 3 Zrotation Xrotation Yrotation
      JOINT RightFoot
      {
        OFFSET 40.6238 0 0
        CHANNELS 3 Zrotation Xrotation Yrotation
        JOINT RightToeBase
        {
          OFFSET 12.7242 0 0
          CHANNELS 3 Zrotation Xrotation Yrotation
          End Site
          {
            OFFSET 0 0 0
          }
        }
      }
    }
  }
  JOINT Spine
  {
    OFFSET 0.165834 0.87714 6.61349
    CHANNELS 3 Zrotation Xrotation Yrotation
    JOINT Spine1
    {
      OFFSET 7.38963 1.71661e-005 0
      CHANNELS 3 Zrotation Xrotation Yrotation
      JOINT Spine2
      {
        OFFSET 11.9445 1.14441e-005 0
        CHANNELS 3 Zrotation Xrotation Yrotation
        JOINT Spine3
        {
          OFFSET 14.7254 4.19617e-005 0
          CHANNELS 3 Zrotation Xrotation Yrotation
          JOINT Spine4
          {
            OFFSET 10.9679 0 0
            CHANNELS 3 Zrotation Xrotation Yrotation
            JOINT RightShoulder
            {
              OFFSET 2.46616 -1.6653 3.69651
              CHANNELS 3 Zrotation Xrotation Yrotation
              JOINT RightArm
              {
                OFFSET 13.0012 0 0
                CHANNELS 3 Zrotation Xrotation Yrotation
                JOINT RightForeArm
                {
                  OFFSET 28.7848 1.62311e-005 0
                  CHANNELS 3 Zrotation Xrotation Yrotation
                  JOINT RightHand
                  {
                    OFFSET 26.5688 1.62095e-005 0
                    CHANNELS 3 Zrotation Xrotation Yrotation
                    End Site
                    {
                      OFFSET 0 0 0
                    }
                  }
                }
              }
            }
            JOINT LeftShoulder
            {
              OFFSET 2.38034 -1.29275 -3.7523
              CHANNELS 3 Zrotation Xrotation Yrotation
              JOINT LeftArm
              {
                OFFSET 16.3182 6.07031e-005 0
                CHANNELS 3 Zrotation Xrotation Yrotation
                JOINT LeftForeArm
                {
                  OFFSET 27.0901 0 0
                  CHANNELS 3 Zrotation Xrotation Yrotation
                  JOINT LeftHand
                  {
                    OFFSET 24.5451 1.51738e-005 0
                    CHANNELS 3 Zrotation Xrotation Yrotation
                    End Site
                    {
                      OFFSET 0 0 0
                    }
                  }
                }
              }
            }
            JOINT Neck
            {
              OFFSET 5.0226 -0.0266342 0
              CHANNELS 3 Zrotation Xrotation Yrotation
              JOINT Head
              {
                OFFSET 6.69364 2.86102e-005 0
                CHANNELS 3 Zrotation Xrotation Yrotation
                End Site
                {
                  OFFSET 0 0 0
                }
              }
            }
          }
        }
      }
    }
  }
}
MOTION
Frames:	11
Frame Time:	0.0416667
250.833 95.4982 231.036 -90.0541 44.3617 -88.3792 -175.194 29.6258 83.0617 -22.5449 10.3378 -3.81832 63.9234 2.09295 -0.812126 16.6359 -4.31946 -2.58925 164.567 -25.2844 85.5553 -75.9133 -14.6064 -0.798362 58.6703 0.673345 -1.86311 115.966 -26.8139 19.8984 2.90615 7.42806 -89.5828 12.0279 5.97476 0.180379 0.370713 5.97688 -0.0837271 -22.2661 5.64341 1.97347 -2.25345 5.64341 1.97347 92.8879 -13.8492 -107.431 31.3077 6.81618 33.7803 -83.0175 -4.09906 -91.8385 -33.5566 6.11648 -25.6688 -82.4673 -39.6992 89.0735 -27.0983 45.2146 39.8747 128.332 11.0334 -65.2899 90.3559 -20.736 -15.8554 11.6077 -11.3598 -8.20221 -6.36703 -9.11524 -0.968265 
235.951 93.1432 215.323 -92.4001 38.4613 -91.9342 -171.142 24.2131 77.4022 -43.9153 15.7145 -6.80197 77.6323 12.928 5.76227 1.05593 -15.424 1.55628 157.164 -6.84289 86.54 -110.497 -6.90618 -3.12878 58.1248 -1.38002 -4.88479 66.4638 -16.0567 4.13255 1.26257 7.87546 -88.827 11.095 3.05775 2.03774 -0.573818 3.14444 1.90115 -23.1122 2.30421 2.86231 -3.09955 2.30417 2.86229 94.3609 -23.4841 -99.7456 52.7033 -11.7395 27.5063 -27.714 -15.7968 -60.9767 -58.0279 7.5909 -17.8997 -90.5409 -52.2412 78.3752 -3.81457 11.5881 2.72952 95.6116 44.5294 -94.6688 118.92 -47.4936 -26.1262 12.088 -9.21351 -13.906 -4.57861 -5.62941 1.93373 
222.71 90.9932 202.157 -92.1052 32.8975 -96.0694 -175.179 7.36859 72.8812 -45.2205 15.5963 -3.8538 92.0957 23.769 2.91371 9.53288 -11.2807 2.85588 166.324 24.3798 75.544 -131.09 -13.2865 -4.55499 56.6198 -0.584756 -6.37216 13.023 4.67721 6.49842 -1.03021 7.73005 -88.1896 11.4078 -1.20509 3.727 -0.268271 -1.04007 3.77631 -22.7734 -2.26877 3.19352 -2.76073 -2.26879 3.19351 95.8439 -23.8331 -96.4419 57.2112 10.1827 11.5287 3.48862 -73.2006 4.93736 -74.6985 15.3061 -25.8378 -91.204 -50.1878 76.9616 -4.69465 2.27398 -32.7306 30.2293 32.4004 -53.0768 55.4186 -32.0801 -51.303 15.5313 -3.47396 -13.3936 -10.5874 0.244951 0.897897 
207.498 92.3448 186.138 -90.9692 36.3621 -90.2254 -171.126 -8.92954 92.0431 -28.7213 16.7746 -2.74637 88.4046 21.1938 1.65942 26.0183 -3.1694 3.75638 176.091 42.5181 90.8275 -119.048 -7.03918 -4.22201 68.5519 -7.54153 -8.1326 14.2774 3.46081 8.58702 -2.38056 7.49376 -89.2995 11.9418 -4.40218 1.88562 0.276906 -4.31491 2.0778 -22.319 -4.76501 0.472612 -2.30637 -4.765 0.47261 97.564 -17.5999 -93.6901 42.1493 14.8988 27.7368 -174.316 -77.4655 -172.971 -86.8354 15.4725 -21.8059 -88.5251 -35.5822 77.7407 -5.38241 -8.86504 -48.5004 151.691 27.6401 -125.933 17.3985 -10.6548 -91.3666 18.3122 5.97378 -9.8221 -14.4363 8.45405 2.92588 
190.048 96.7234 169.462 -91.6226 37.1178 -82.8701 -168.003 -28.1291 97.1986 -8.95172 21.7544 1.5509 54.0589 -2.50719 1.22171 26.8586 0.0401105 -2.10452 177.973 44.9371 97.2259 -82.9909 4.36999 -2.90224 72.1621 -7.66803 -4.62998 15.4226 3.09584 8.35126 -3.8573 7.63178 -90.5668 11.6239 -7.93846 -0.305953 -0.0226751 -7.94418 0.0459854 -22.7369 -7.47739 -2.69108 -2.72426 -7.47738 -2.69109 98.7889 -6.93034 -93.1955 34.3403 16.2313 32.3934 -157.745 -85.2939 -156.605 -80.466 30.4156 -41.1099 -84.1272 -17.1377 81.6542 1.04461 -12.6409 -41.547 149.921 27.9479 -119.463 4.79036 3.67475 -98.0431 24.6459 13.9439 -10.0393 -24.3042 15.1908 9.84987 
173.107 97.6947 152.938 -88.3511 37.8768 -81.9543 -165.898 -30.8027 100.684 -18.1704 9.49608 2.98274 58.4751 -0.10731 2.30248 14.1885 -9.62162 4.31022 -178.517 39.284 96.2918 -38.81 -10.0405 -1.31761 67.4518 -5.87737 -3.31154 18.9952 1.91717 7.68511 -4.13489 7.64582 -91.4017 11.526 -8.881 -1.88292 -0.115194 -8.95522 -1.48719 -22.8432 -7.90253 -4.47953 -2.8305 -7.90253 -4.47953 99.2729 -2.44949 -92.8602 22.7653 17.0947 37.4396 -9.53775 -71.023 -8.95024 -10.523 2.61004 -50.3997 -82.5013 -0.336922 80.7889 6.43692 -12.8105 -34.5551 129.114 40.4795 -111.432 0.293282 5.97701 -87.2393 26.5141 15.3046 -14.2235 -25.8178 16.6745 16.7673 
156.792 96.2703 136.494 -93.2949 39.0883 -82.4579 -163.669 -31.5652 99.7043 -43.1727 1.21022 0.630474 59.5798 0.0107853 4.14256 20.2542 -4.55193 1.23011 -178.623 25.1656 93.8345 -10.357 -18.5876 -0.96369 60.7618 -2.72526 -1.83905 22.3951 1.65029 4.22267 -3.95397 7.61659 -90.9674 11.6292 -8.31839 -1.06481 -0.0150319 -8.35713 -0.695095 -22.7349 -7.61176 -3.52946 -2.72225 -7.61175 -3.52946 98.7708 -4.71294 -94.8594 31.9297 17.5568 41.7686 -4.88045 -76.9635 -3.93282 -56.1166 13.2952 -28.9023 -81.9884 -3.88599 82.1192 8.23308 -4.46631 -35.6584 127.277 41.0073 -108.783 -4.81275 6.69871 -67.4772 21.1266 17.1887 -6.29963 -21.7096 17.104 9.97466 
142.359 93.2845 121.075 -98.385 42.5086 -80.081 -159.251 -18.0979 100.767 -81.2832 10.0013 0.954552 59.7677 0.602578 5.75993 14.9388 -4.99656 -2.82208 178.759 28.5466 95.6454 -37.8244 -20.0256 -0.630325 62.8484 -2.09062 -3.09874 16.0697 3.63784 6.12482 -3.00293 7.58825 -90.8992 11.6709 -6.39418 -1.11239 0.0152663 -6.43688 -0.828747 -22.6224 -5.76367 -2.98849 -2.6098 -5.76367 -2.9885 96.3893 -17.7388 -96.6103 37.9677 14.4415 46.753 -30.781 -45.6869 -38.5063 -46.7022 10.6544 -29.7598 -85.9606 -26.2788 80.2463 10.5636 5.32121 -21.4647 125.738 35.8182 -102.227 -9.17766 6.13636 -44.8809 11.5532 17.0806 4.56505 -11.7656 15.2842 5.22839 
129.542 91.4031 107.733 -101.755 47.3701 -67.4299 -158.68 8.9517 107.115 -112.608 11.3144 4.02084 59.2429 0.62419 7.39172 8.91614 -6.0985 -5.58359 177.071 21.5685 106.371 -50.9272 -23.248 2.11214 73.117 -10.8286 -7.41897 23.7539 0.674995 5.57437 -1.45907 8.30703 -92.2283 10.1733 -3.92353 -4.093 -1.49762 -4.09973 -3.91651 -24.0041 -2.51382 -5.08112 -3.99144 -2.51383 -5.08112 94.8214 -28.1924 -97.5317 40.6763 7.03173 18.0266 -25.7426 -29.522 -42.5379 -45.3575 9.77607 -28.6321 -88.3218 -47.7044 80.8022 -1.52483 5.73272 -1.68179 67.4444 32.6272 -71.7781 63.2417 -11.67 -15.4085 17.5997 16.2383 8.84657 -11.8187 13.0441 2.59844 
115.942 92.2543 94.8704 -100.513 48.0336 -71.2878 -168.31 32.4452 96.2916 -118.043 10.5097 4.54222 64.917 4.91672 9.19555 5.4798 -8.93347 -3.83002 177.472 6.24628 102.508 -49.9311 -23.3622 0.207568 80.9314 -16.1247 -4.48075 28.6439 -0.811961 3.63589 -0.302023 7.98795 -91.7153 10.8778 -1.39516 -3.2933 -0.797014 -1.53863 -3.22883 -23.2958 -0.341827 -3.55996 -3.28317 -0.341811 -3.55995 93.1451 -28.1331 -100.976 35.766 1.96525 -2.67314 -28.4253 -19.5946 -56.0621 -49.0035 7.9161 -22.7396 -85.7406 -47.2323 84.7137 -23.1609 10.4611 24.1764 35.7543 20.8605 -59.7446 78.0937 -22.7377 -26.0949 13.4995 9.34328 6.01051 -9.3938 7.4473 2.07395 
100.389 95.8273 80.3843 -104.199 52.7965 -72.736 -169.443 39.431 90.8212 -95.66 -1.26285 3.42082 75.2708 11.247 8.77213 8.36447 -8.44697 -2.45697 174.823 -12.0539 95.294 -36.7549 -35.1452 -3.86816 70.0423 -7.93863 -3.97322 33.9431 -3.7991 7.42686 2.42078 7.76879 -90.6111 11.3798 4.53254 -1.65872 -0.285167 4.45514 -1.85685 -22.8794 4.82139 -0.217244 -2.8668 4.82141 -0.217235 95.2846 -16.5804 -99.9636 32.0436 0.805342 5.38919 -15.0403 -6.42879 -81.7127 -61.2622 8.76009 -19.9983 -83.4784 -40.5943 87.4984 -29.3577 25.6795 42.1588 48.7654 21.0233 -63.3847 82.952 -19.2271 -18.8254 13.6841 -3.32175 -1.49423 -10.5824 -2.74378 -0.865283 
